<svg id="Calque_1" data-name="Calque 1" xmlns="http://www.w3.org/2000/svg" viewBox="0 0 145.7 792.96"><defs><style>.cls-1,.cls-3{fill:#1d1d1b;}.cls-2{fill:none;}.cls-2,.cls-3{stroke:#1d1d1b;stroke-miterlimit:10;stroke-width:3px;}</style></defs><title>roadmap</title><path class="cls-1" d="M139.94,796.34A10,10,0,0,1,133.13,779c35-32.51,51.77-64.19,49.72-94.14-2.46-36.06-30.89-58.81-61-82.9C92,578.07,61.12,553.35,60.34,514.65c-.82-40.95,33.1-67.83,63-91.55,28.23-22.38,54.9-43.51,51.18-72.4-2.86-22.2-21.65-37.89-41.54-54.5-23.5-19.62-50.14-41.86-51.33-78.47-.88-26.82,12-53.64,38.2-79.71A10,10,0,1,1,134,152.2c-22.13,22-33,43.83-32.31,64.88.9,27.65,21.91,45.19,44.16,63.77,22,18.35,44.7,37.32,48.56,67.3,5.16,40.09-27.25,65.78-58.6,90.62C107,461.63,79.71,483.22,80.34,514.24c.59,29.35,26.54,50.12,54,72.11,30.64,24.53,65.38,52.33,68.45,97.15,2.48,36.28-16.39,73.35-56.07,110.17A10,10,0,0,1,139.94,796.34Z" transform="translate(-58.82 -59.34)"/><path class="cls-2" d="M139.94,796.34A10,10,0,0,1,133.13,779c35-32.51,51.77-64.19,49.72-94.14-2.46-36.06-30.89-58.81-61-82.9C92,578.07,61.12,553.35,60.34,514.65c-.82-40.95,33.1-67.83,63-91.55,28.23-22.38,54.9-43.51,51.18-72.4-2.86-22.2-21.65-37.89-41.54-54.5-23.5-19.62-50.14-41.86-51.33-78.47-.88-26.82,12-53.64,38.2-79.71A10,10,0,1,1,134,152.2c-22.13,22-33,43.83-32.31,64.88.9,27.65,21.91,45.19,44.16,63.77,22,18.35,44.7,37.32,48.56,67.3,5.16,40.09-27.25,65.78-58.6,90.62C107,461.63,79.71,483.22,80.34,514.24c.59,29.35,26.54,50.12,54,72.11,30.64,24.53,65.38,52.33,68.45,97.15,2.48,36.28-16.39,73.35-56.07,110.17A10,10,0,0,1,139.94,796.34Z" transform="translate(-58.82 -59.34)"/><polygon class="cls-3" points="112.26 103.96 13.77 72.35 90.39 2.86 112.26 103.96"/><path class="cls-1" d="M79.09,829.19a10,10,0,0,1-4.27-19l109.39-51.62a10,10,0,1,1,8.54,18.09L83.35,828.24A9.93,9.93,0,0,1,79.09,829.19Z" transform="translate(-58.82 -59.34)"/><path class="cls-2" d="M79.09,829.19a10,10,0,0,1-4.27-19l109.39-51.62a10,10,0,1,1,8.54,18.09L83.35,828.24A9.93,9.93,0,0,1,79.09,829.19Z" transform="translate(-58.82 -59.34)"/><path class="cls-1" d="M165.28,850.8a10,10,0,0,1-9.05-5.73L104.61,735.68a10,10,0,1,1,18.09-8.54l51.61,109.39a10,10,0,0,1-9,14.27Z" transform="translate(-58.82 -59.34)"/><path class="cls-2" d="M165.28,850.8a10,10,0,0,1-9.05-5.73L104.61,735.68a10,10,0,1,1,18.09-8.54l51.61,109.39a10,10,0,0,1-9,14.27Z" transform="translate(-58.82 -59.34)"/></svg>